<svg xmlns="http://www.w3.org/2000/svg" xmlns:xlink="http://www.w3.org/1999/xlink" version="1.1" id="Layer_1" x="0px" y="0px" width="100%" height="100%" viewBox="0 0 64 64" enable-background="new 0 0 64 64" xml:space="preserve">
<path fill="none" stroke="#000000" stroke-width="2" stroke-miterlimit="10" d="M3.7079999999999984,35A28.292,28.292 0,1,1 60.292,35A28.292,28.292 0,1,1 3.7079999999999984,35" style="stroke-dasharray: 178, 180; stroke-dashoffset: 0;"/>
<path fill="none" stroke="#000000" stroke-width="2" stroke-linejoin="bevel" stroke-miterlimit="10" d="M37,40L45,21L26,29L19,47Z" style="stroke-dasharray: 80, 82; stroke-dashoffset: 0;"/>
<path fill="none" stroke="#000000" stroke-width="2" stroke-miterlimit="10" d="M26,29L37,40" style="stroke-dasharray: 16, 18; stroke-dashoffset: 0;"/>
<path fill="none" stroke="#000000" stroke-width="2" stroke-miterlimit="10" d="M36.9,7C36.965,6.677,37,6.342,37,6  c0-2.761-2.239-5-5-5s-5,2.239-5,5c0,0.342,0.035,0.677,0.1,1" style="stroke-dasharray: 18, 20; stroke-dashoffset: 0;"/>
<path fill="none" stroke="#000000" stroke-width="2" stroke-miterlimit="10" d="M32,7L32,12" style="stroke-dasharray: 5, 7; stroke-dashoffset: 0;"/>
<path fill="none" stroke="#000000" stroke-width="2" stroke-miterlimit="10" d="M32,58L32,63" style="stroke-dasharray: 5, 7; stroke-dashoffset: 0;"/>
<path fill="none" stroke="#000000" stroke-width="2" stroke-miterlimit="10" d="M60,35L55,35" style="stroke-dasharray: 5, 7; stroke-dashoffset: 0;"/>
<path fill="none" stroke="#000000" stroke-width="2" stroke-miterlimit="10" d="M9,35L4,35" style="stroke-dasharray: 5, 7; stroke-dashoffset: 0;"/>
</svg>